<mxfile host="app.diagrams.net" modified="2023-04-16T22:27:13.381Z" agent="Mozilla/5.0 (Windows NT 10.0; Win64; x64) AppleWebKit/537.36 (KHTML, like Gecko) Chrome/112.0.0.0 Safari/537.36" etag="yamkhZ0U1BDDgdlvWEwF" version="21.1.6" type="github">
  <diagram name="PÃ¡gina-1" id="73m1Glvi_9iK9V6GDbxK">
    <mxGraphModel dx="1434" dy="796" grid="1" gridSize="10" guides="1" tooltips="1" connect="1" arrows="1" fold="1" page="1" pageScale="1" pageWidth="1169" pageHeight="1654" math="0" shadow="0">
      <root>
        <mxCell id="0" />
        <mxCell id="1" parent="0" />
        <mxCell id="XnNLOmRpZxt_7k0BhdUp-1" value="" style="rounded=0;whiteSpace=wrap;html=1;" parent="1" vertex="1">
          <mxGeometry x="163" y="250" width="180" height="110" as="geometry" />
        </mxCell>
        <mxCell id="XnNLOmRpZxt_7k0BhdUp-2" value="PESSOA" style="text;html=1;strokeColor=none;fillColor=none;align=center;verticalAlign=middle;whiteSpace=wrap;rounded=0;fontSize=16;" parent="1" vertex="1">
          <mxGeometry x="198" y="270" width="110" height="70" as="geometry" />
        </mxCell>
        <mxCell id="XnNLOmRpZxt_7k0BhdUp-9" value="" style="ellipse;whiteSpace=wrap;html=1;" parent="1" vertex="1">
          <mxGeometry x="195.52" y="120" width="120" height="80" as="geometry" />
        </mxCell>
        <mxCell id="XnNLOmRpZxt_7k0BhdUp-14" value="" style="endArrow=none;html=1;rounded=0;" parent="1" source="XnNLOmRpZxt_7k0BhdUp-1" edge="1">
          <mxGeometry width="50" height="50" relative="1" as="geometry">
            <mxPoint x="333" y="250" as="sourcePoint" />
            <mxPoint x="365.51829714673454" y="211.2347523777214" as="targetPoint" />
          </mxGeometry>
        </mxCell>
        <mxCell id="XnNLOmRpZxt_7k0BhdUp-16" value="" style="endArrow=none;html=1;rounded=0;" parent="1" source="XnNLOmRpZxt_7k0BhdUp-1" target="XnNLOmRpZxt_7k0BhdUp-9" edge="1">
          <mxGeometry width="50" height="50" relative="1" as="geometry">
            <mxPoint x="565.52" y="375" as="sourcePoint" />
            <mxPoint x="615.52" y="325" as="targetPoint" />
          </mxGeometry>
        </mxCell>
        <mxCell id="XnNLOmRpZxt_7k0BhdUp-20" value="" style="ellipse;whiteSpace=wrap;html=1;" parent="1" vertex="1">
          <mxGeometry x="215.52" y="132.5" width="80" height="55" as="geometry" />
        </mxCell>
        <mxCell id="XnNLOmRpZxt_7k0BhdUp-21" value="endereco" style="text;html=1;strokeColor=none;fillColor=none;align=center;verticalAlign=middle;whiteSpace=wrap;rounded=0;" parent="1" vertex="1">
          <mxGeometry x="225.52" y="145" width="60" height="30" as="geometry" />
        </mxCell>
        <mxCell id="XnNLOmRpZxt_7k0BhdUp-22" value="" style="ellipse;whiteSpace=wrap;html=1;" parent="1" vertex="1">
          <mxGeometry x="345.52" y="145" width="120" height="80" as="geometry" />
        </mxCell>
        <mxCell id="XnNLOmRpZxt_7k0BhdUp-23" value="" style="ellipse;whiteSpace=wrap;html=1;" parent="1" vertex="1">
          <mxGeometry x="365.52" y="157.5" width="80" height="55" as="geometry" />
        </mxCell>
        <mxCell id="XnNLOmRpZxt_7k0BhdUp-24" value="telefone" style="text;html=1;strokeColor=none;fillColor=none;align=center;verticalAlign=middle;whiteSpace=wrap;rounded=0;" parent="1" vertex="1">
          <mxGeometry x="375.52" y="170" width="60" height="30" as="geometry" />
        </mxCell>
        <mxCell id="XnNLOmRpZxt_7k0BhdUp-44" value="" style="rounded=0;whiteSpace=wrap;html=1;" parent="1" vertex="1">
          <mxGeometry x="755.52" y="250" width="180" height="110" as="geometry" />
        </mxCell>
        <mxCell id="XnNLOmRpZxt_7k0BhdUp-45" value="PARENTESCO" style="text;html=1;strokeColor=none;fillColor=none;align=center;verticalAlign=middle;whiteSpace=wrap;rounded=0;fontSize=16;" parent="1" vertex="1">
          <mxGeometry x="790.52" y="270" width="110" height="70" as="geometry" />
        </mxCell>
        <mxCell id="XnNLOmRpZxt_7k0BhdUp-46" value="" style="ellipse;whiteSpace=wrap;html=1;" parent="1" vertex="1">
          <mxGeometry x="885.04" y="132.5" width="120" height="80" as="geometry" />
        </mxCell>
        <mxCell id="XnNLOmRpZxt_7k0BhdUp-47" value="" style="endArrow=none;html=1;rounded=0;" parent="1" target="XnNLOmRpZxt_7k0BhdUp-54" edge="1">
          <mxGeometry width="50" height="50" relative="1" as="geometry">
            <mxPoint x="785.52" y="250" as="sourcePoint" />
            <mxPoint x="1053.0935931288072" y="-51.715728752538325" as="targetPoint" />
          </mxGeometry>
        </mxCell>
        <mxCell id="XnNLOmRpZxt_7k0BhdUp-48" value="" style="endArrow=none;html=1;rounded=0;exitX=0.833;exitY=-0.009;exitDx=0;exitDy=0;exitPerimeter=0;" parent="1" source="XnNLOmRpZxt_7k0BhdUp-44" target="XnNLOmRpZxt_7k0BhdUp-46" edge="1">
          <mxGeometry width="50" height="50" relative="1" as="geometry">
            <mxPoint x="880.52" y="250" as="sourcePoint" />
            <mxPoint x="1190.04" y="322.5" as="targetPoint" />
          </mxGeometry>
        </mxCell>
        <mxCell id="XnNLOmRpZxt_7k0BhdUp-54" value="" style="ellipse;whiteSpace=wrap;html=1;" parent="1" vertex="1">
          <mxGeometry x="675.52" y="130" width="120" height="80" as="geometry" />
        </mxCell>
        <mxCell id="XnNLOmRpZxt_7k0BhdUp-57" value="nome" style="text;html=1;strokeColor=none;fillColor=none;align=center;verticalAlign=middle;whiteSpace=wrap;rounded=0;" parent="1" vertex="1">
          <mxGeometry x="915.04" y="157.5" width="60" height="30" as="geometry" />
        </mxCell>
        <mxCell id="XnNLOmRpZxt_7k0BhdUp-58" value="dataNascimento" style="text;html=1;strokeColor=none;fillColor=none;align=center;verticalAlign=middle;whiteSpace=wrap;rounded=0;" parent="1" vertex="1">
          <mxGeometry x="705.52" y="155" width="60" height="30" as="geometry" />
        </mxCell>
        <mxCell id="XnNLOmRpZxt_7k0BhdUp-59" value="" style="endArrow=none;html=1;rounded=0;exitX=0.5;exitY=0;exitDx=0;exitDy=0;entryX=0.5;entryY=1;entryDx=0;entryDy=0;" parent="1" source="XnNLOmRpZxt_7k0BhdUp-60" target="XnNLOmRpZxt_7k0BhdUp-44" edge="1">
          <mxGeometry width="50" height="50" relative="1" as="geometry">
            <mxPoint x="518.02" y="262.5" as="sourcePoint" />
            <mxPoint x="773.02" y="390" as="targetPoint" />
          </mxGeometry>
        </mxCell>
        <mxCell id="XnNLOmRpZxt_7k0BhdUp-60" value="" style="ellipse;whiteSpace=wrap;html=1;" parent="1" vertex="1">
          <mxGeometry x="790.52" y="420" width="120" height="80" as="geometry" />
        </mxCell>
        <mxCell id="XnNLOmRpZxt_7k0BhdUp-61" value="tipo" style="text;html=1;strokeColor=none;fillColor=none;align=center;verticalAlign=middle;whiteSpace=wrap;rounded=0;" parent="1" vertex="1">
          <mxGeometry x="820.52" y="450" width="60" height="30" as="geometry" />
        </mxCell>
        <mxCell id="XnNLOmRpZxt_7k0BhdUp-71" value="" style="rhombus;whiteSpace=wrap;html=1;" parent="1" vertex="1">
          <mxGeometry x="535.52" y="265" width="80" height="80" as="geometry" />
        </mxCell>
        <mxCell id="XnNLOmRpZxt_7k0BhdUp-74" value="" style="endArrow=classic;html=1;rounded=0;exitX=1;exitY=0.5;exitDx=0;exitDy=0;entryX=0;entryY=0.5;entryDx=0;entryDy=0;" parent="1" source="XnNLOmRpZxt_7k0BhdUp-1" target="XnNLOmRpZxt_7k0BhdUp-71" edge="1">
          <mxGeometry width="50" height="50" relative="1" as="geometry">
            <mxPoint x="325.52" y="560" as="sourcePoint" />
            <mxPoint x="535.52" y="310" as="targetPoint" />
          </mxGeometry>
        </mxCell>
        <mxCell id="XnNLOmRpZxt_7k0BhdUp-75" value="possui" style="text;html=1;strokeColor=none;fillColor=none;align=center;verticalAlign=middle;whiteSpace=wrap;rounded=0;" parent="1" vertex="1">
          <mxGeometry x="545.52" y="290" width="60" height="30" as="geometry" />
        </mxCell>
        <mxCell id="XnNLOmRpZxt_7k0BhdUp-77" value="" style="endArrow=none;html=1;rounded=0;" parent="1" edge="1">
          <mxGeometry width="50" height="50" relative="1" as="geometry">
            <mxPoint x="45" y="540" as="sourcePoint" />
            <mxPoint x="1135" y="540" as="targetPoint" />
          </mxGeometry>
        </mxCell>
        <mxCell id="XnNLOmRpZxt_7k0BhdUp-78" value="PESSOA" style="text;html=1;strokeColor=none;fillColor=none;align=center;verticalAlign=middle;whiteSpace=wrap;rounded=0;fontStyle=1;fontSize=20;" parent="1" vertex="1">
          <mxGeometry x="55" y="670" width="60" height="30" as="geometry" />
        </mxCell>
        <mxCell id="XnNLOmRpZxt_7k0BhdUp-81" value="" style="rounded=0;whiteSpace=wrap;html=1;" parent="1" vertex="1">
          <mxGeometry x="50" y="720" width="160" height="40" as="geometry" />
        </mxCell>
        <mxCell id="XnNLOmRpZxt_7k0BhdUp-82" value="endereco" style="text;html=1;strokeColor=none;fillColor=none;align=center;verticalAlign=middle;whiteSpace=wrap;rounded=0;fontSize=16;fontStyle=0" parent="1" vertex="1">
          <mxGeometry x="100" y="725" width="60" height="30" as="geometry" />
        </mxCell>
        <mxCell id="XnNLOmRpZxt_7k0BhdUp-83" value="" style="rounded=0;whiteSpace=wrap;html=1;" parent="1" vertex="1">
          <mxGeometry x="210" y="720" width="160" height="40" as="geometry" />
        </mxCell>
        <mxCell id="XnNLOmRpZxt_7k0BhdUp-84" value="telefone" style="text;html=1;strokeColor=none;fillColor=none;align=center;verticalAlign=middle;whiteSpace=wrap;rounded=0;fontSize=16;fontStyle=0" parent="1" vertex="1">
          <mxGeometry x="260" y="725" width="60" height="30" as="geometry" />
        </mxCell>
        <mxCell id="XnNLOmRpZxt_7k0BhdUp-85" value="PARENTESCO" style="text;html=1;strokeColor=none;fillColor=none;align=center;verticalAlign=middle;whiteSpace=wrap;rounded=0;fontStyle=1;fontSize=20;" parent="1" vertex="1">
          <mxGeometry x="85" y="840" width="60" height="30" as="geometry" />
        </mxCell>
        <mxCell id="XnNLOmRpZxt_7k0BhdUp-90" value="" style="rounded=0;whiteSpace=wrap;html=1;" parent="1" vertex="1">
          <mxGeometry x="50" y="887" width="160" height="40" as="geometry" />
        </mxCell>
        <mxCell id="XnNLOmRpZxt_7k0BhdUp-91" value="telefone" style="text;html=1;strokeColor=none;fillColor=none;align=center;verticalAlign=middle;whiteSpace=wrap;rounded=0;fontSize=16;fontStyle=0" parent="1" vertex="1">
          <mxGeometry x="100" y="892" width="60" height="30" as="geometry" />
        </mxCell>
        <mxCell id="XnNLOmRpZxt_7k0BhdUp-93" value="" style="rounded=0;whiteSpace=wrap;html=1;" parent="1" vertex="1">
          <mxGeometry x="210" y="887" width="160" height="40" as="geometry" />
        </mxCell>
        <mxCell id="XnNLOmRpZxt_7k0BhdUp-94" value="tipo" style="text;html=1;strokeColor=none;fillColor=none;align=center;verticalAlign=middle;whiteSpace=wrap;rounded=0;fontSize=16;fontStyle=0" parent="1" vertex="1">
          <mxGeometry x="260" y="892" width="60" height="30" as="geometry" />
        </mxCell>
        <mxCell id="XnNLOmRpZxt_7k0BhdUp-95" value="" style="rounded=0;whiteSpace=wrap;html=1;" parent="1" vertex="1">
          <mxGeometry x="370" y="887" width="160" height="40" as="geometry" />
        </mxCell>
        <mxCell id="XnNLOmRpZxt_7k0BhdUp-96" value="endereco" style="text;html=1;strokeColor=none;fillColor=none;align=center;verticalAlign=middle;whiteSpace=wrap;rounded=0;fontSize=16;fontStyle=0" parent="1" vertex="1">
          <mxGeometry x="420" y="892" width="60" height="30" as="geometry" />
        </mxCell>
        <mxCell id="XnNLOmRpZxt_7k0BhdUp-107" value="1 : N" style="text;html=1;strokeColor=none;fillColor=none;align=center;verticalAlign=middle;whiteSpace=wrap;rounded=0;" parent="1" vertex="1">
          <mxGeometry x="545.52" y="235" width="60" height="30" as="geometry" />
        </mxCell>
        <mxCell id="0UOy-jVvpX_Dz1E8rLPq-1" value="" style="endArrow=classic;html=1;rounded=0;exitX=1;exitY=0.5;exitDx=0;exitDy=0;entryX=0;entryY=0.5;entryDx=0;entryDy=0;" parent="1" target="XnNLOmRpZxt_7k0BhdUp-44" edge="1">
          <mxGeometry width="50" height="50" relative="1" as="geometry">
            <mxPoint x="615.52" y="304.5" as="sourcePoint" />
            <mxPoint x="805.52" y="304.5" as="targetPoint" />
          </mxGeometry>
        </mxCell>
        <mxCell id="0UOy-jVvpX_Dz1E8rLPq-2" value="&lt;p class=&quot;MsoNormal&quot; style=&quot;font-size: 16px;&quot;&gt;&lt;b style=&quot;font-size: 16px;&quot;&gt;&lt;u style=&quot;font-size: 16px;&quot;&gt;DE-R&lt;/u&gt; (Diagrama&lt;br style=&quot;font-size: 16px;&quot;&gt;Entidade-Relacionamento)&lt;/b&gt;&lt;/p&gt;" style="text;html=1;strokeColor=none;fillColor=none;align=center;verticalAlign=middle;whiteSpace=wrap;rounded=0;fontSize=16;" parent="1" vertex="1">
          <mxGeometry x="40" y="30" width="290" height="30" as="geometry" />
        </mxCell>
        <mxCell id="0UOy-jVvpX_Dz1E8rLPq-3" value="&lt;p class=&quot;MsoNormal&quot; style=&quot;font-size: 16px;&quot;&gt;&lt;b style=&quot;font-size: 16px;&quot;&gt;&lt;u style=&quot;font-size: 16px;&quot;&gt;DE&lt;/u&gt; (Diagrama de Esquemas)&lt;/b&gt;&lt;/p&gt;" style="text;html=1;strokeColor=none;fillColor=none;align=center;verticalAlign=middle;whiteSpace=wrap;rounded=0;fontSize=16;" parent="1" vertex="1">
          <mxGeometry x="40" y="570" width="290" height="30" as="geometry" />
        </mxCell>
      </root>
    </mxGraphModel>
  </diagram>
</mxfile>
